<?xml version="1.0" standalone="no"?>
<!DOCTYPE svg PUBLIC "-//W3C//DTD SVG 20010904//EN"
 "http://www.w3.org/TR/2001/REC-SVG-20010904/DTD/svg10.dtd">
<svg version="1.0" xmlns="http://www.w3.org/2000/svg"
 width="320.000000pt" height="320.000000pt" viewBox="0 0 320.000000 320.000000"
 preserveAspectRatio="xMidYMid meet">

<g transform="translate(0.000000,320.000000) scale(0.100000,-0.100000)"
fill="#000000" stroke="none">
<path d="M1020 2655 c-12 -13 -28 -46 -36 -74 -32 -125 41 -230 236 -338 52
-29 96 -50 98 -48 3 2 -248 445 -273 482 -1 2 -12 -8 -25 -22z"/>
<path d="M1699 2077 c-735 -422 -944 -542 -968 -559 -12 -9 -35 -34 -52 -56
-92 -125 -79 -310 29 -420 38 -37 202 -141 202 -127 0 2 -9 19 -19 37 -45 77
-34 168 27 228 21 20 179 117 352 217 343 196 646 371 819 473 l111 65 0 213
c0 116 -1 212 -3 212 -2 0 -226 -127 -498 -283z"/>
<path d="M2311 1132 c14 -26 19 -55 18 -97 -1 -57 2 -65 71 -185 96 -165 92
-162 124 -113 46 69 51 176 12 252 -22 41 -93 100 -174 143 l-70 38 19 -38z"/>
</g>
</svg>
